HIERARCHY
ROOT root
{
	OFFSET	0	13.1	24.9
	CHANNELS 6  Xposition Yposition Zposition Xrotation Yrotation Zrotation
	JOINT spine_1
	{
		OFFSET	0	9.99999	0
		CHANNELS 3  Xrotation Yrotation Zrotation
		JOINT spine_2
		{
			OFFSET	0	112	-10
			CHANNELS 3  Xrotation Yrotation Zrotation
			JOINT spine_3
			{
				OFFSET	0	206.5	19.3
				CHANNELS 3  Xrotation Yrotation Zrotation
				JOINT spine_4
				{
					OFFSET	0	110.4	14.6
					CHANNELS 3  Xrotation Yrotation Zrotation
					JOINT neck_1
					{
						OFFSET	0	71.8	-50.3
						CHANNELS 3  Xrotation Yrotation Zrotation
						JOINT neck_2
						{
							OFFSET	0	86.2	-25.8
							CHANNELS 3  Xrotation Yrotation Zrotation
							JOINT head_ee
							{
								OFFSET	0	179.8	-8.7
								CHANNELS 3  Xrotation Yrotation Zrotation
								End Site
								{
									OFFSET	1	0	0
								}
							}
						}
					}
					JOINT left_clavicle
					{
						OFFSET	-43.2	22.4	-70.8
						CHANNELS 3  Xrotation Yrotation Zrotation
						JOINT left_shoulder
						{
							OFFSET	-93.9	-5.79999	48.7
							CHANNELS 3  Xrotation Yrotation Zrotation
							JOINT left_elbow
							{
								OFFSET	-291.4	-30.8	15.2
								CHANNELS 3  Xrotation Yrotation Zrotation
								JOINT left_lowarm_twist
								{
									OFFSET	-110.7	-3.89999	13.6
									CHANNELS 3  Xrotation Yrotation Zrotation
									JOINT left_hand
									{
										OFFSET	-110.7	-3.89999	13.6
										CHANNELS 3  Xrotation Yrotation Zrotation
										JOINT left_ee
										{
											OFFSET	-80.8	-5.10001	12.1
											CHANNELS 3  Xrotation Yrotation Zrotation
											End Site
											{
												OFFSET	1	0	0
											}
										}
									}
								}
							}
						}
					}
					JOINT right_clavicle
					{
						OFFSET	43.2	22.4	-70.8
						CHANNELS 3  Xrotation Yrotation Zrotation
						JOINT right_shoulder
						{
							OFFSET	93.9	-5.79999	48.7
							CHANNELS 3  Xrotation Yrotation Zrotation
							JOINT right_elbow
							{
								OFFSET	291.4	-30.8	15.2
								CHANNELS 3  Xrotation Yrotation Zrotation
								JOINT right_lowarm_twist
								{
									OFFSET	110.7	-3.89999	13.6
									CHANNELS 3  Xrotation Yrotation Zrotation
									JOINT right_hand
									{
										OFFSET	110.7	-3.89999	13.6
										CHANNELS 3  Xrotation Yrotation Zrotation
										JOINT right_ee
										{
											OFFSET	80.8	-5.10001	12.1
											CHANNELS 3  Xrotation Yrotation Zrotation
											End Site
											{
												OFFSET	1	0	0
											}
										}
									}
								}
							}
						}
					}
				}
			}
		}
	}
	JOINT left_hip
	{
		OFFSET	-82.8	-127.5	0.300001
		CHANNELS 3  Xrotation Yrotation Zrotation
		JOINT left_knee
		{
			OFFSET	-28.2	-396.7	2.2
			CHANNELS 3  Xrotation Yrotation Zrotation
			JOINT left_ankle
			{
				OFFSET	-11.7	-411.3	35.4
				CHANNELS 3  Xrotation Yrotation Zrotation
				JOINT left_toes
				{
					OFFSET	0	-60	-88.6
					CHANNELS 3  Xrotation Yrotation Zrotation
					JOINT left_foot_ee
					{
						OFFSET	-22.5	-16.5	-42.2
						CHANNELS 3  Xrotation Yrotation Zrotation
						End Site
						{
							OFFSET	1	0	0
						}
					}
				}
			}
		}
	}
	JOINT right_hip
	{
		OFFSET	82.8	-127.5	0.300001
		CHANNELS 3  Xrotation Yrotation Zrotation
		JOINT right_knee
		{
			OFFSET	28.2	-396.7	2.2
			CHANNELS 3  Xrotation Yrotation Zrotation
			JOINT right_ankle
			{
				OFFSET	11.7	-411.3	35.4
				CHANNELS 3  Xrotation Yrotation Zrotation
				JOINT right_toes
				{
					OFFSET	0	-60	-88.6
					CHANNELS 3  Xrotation Yrotation Zrotation
					JOINT right_foot_ee
					{
						OFFSET	22.5	-16.5	-42.2
						CHANNELS 3  Xrotation Yrotation Zrotation
						End Site
						{
							OFFSET	1	0	0
						}
					}
				}
			}
		}
	}
}
MOTION
Frames: 9
Frame Time: 0.02
1817.56 710.118 -1217.36 -10.6502 72.6067 8.63956 2.58694 0.000277396 1.01313 2.58751 -0.0641879 1.01109 2.58625 -0.231012 0.986444 2.58489 -0.0723308 1.01054 -13.9427 9.12605 1.68665 -14.1393 16.3818 4.50156 -0.0 0.0 -0.0 3.80259 17.1802 7.90825 -9.35468 -27.7744 58.5973 1.21498 -31.0412 0.337427 -28.4241 -1.8124 3.1116 1.18704 3.86478 9.49612 -0.0 0.0 -0.0 11.3004 14.8025 -22.6144 -19.3709 3.81689 -62.9967 1.13124 29.2646 -0.295357 75.9615 3.38128 8.36592 0.621161 -29.1506 -14.8312 0.0 0.0 0.0 6.15075 10.9752 3.97367 -11.6709 0.301902 1.76255 30.0249 -5.08133 -3.96602 1.18948 -0.0 -0.0 -0.0 0.0 -0.0 12.7507 22.8145 2.50376 -65.8821 2.86748 -9.14013 23.4602 -6.94219 3.15027 -6.4389 0.0 0.0 0.0 0.0 0.0 
1808.61 711.53 -1219.27 -9.84967 70.8887 8.13486 2.52061 0.0583873 1.04269 2.52121 -0.00807615 1.04429 2.52094 -0.182348 1.02828 2.51947 -0.0176718 1.04417 -12.505 9.47403 1.22271 -12.6804 17.2247 3.95397 -0.0 0.0 -0.0 4.00095 15.44 8.20084 -7.4796 -28.4585 58.071 1.26243 -32.0192 0.362238 -28.9135 -1.85649 3.15623 0.779575 4.91472 7.19665 -0.0 0.0 -0.0 11.3034 14.855 -22.6195 -20.0072 2.83532 -63.3966 1.0367 27.1822 -0.25064 77.9765 3.60729 8.49161 0.684693 -28.3469 -14.9417 0.0 0.0 0.0 5.77604 12.0111 3.82636 -10.94 0.293593 1.65071 29.0547 -4.18619 -3.84935 -1.3275 0.0 0.0 -0.0 0.0 -0.0 15.8744 23.4274 0.105674 -57.8529 1.97266 -8.28466 20.5122 -5.23215 2.79543 -10.2423 0.0 0.0 0.0 0.0 0.0 
1798.21 712.97 -1217.01 -11.0892 69.9349 9.27367 2.50902 -0.0102852 1.02753 2.5096 -0.0756452 1.02479 2.50812 -0.245946 0.997717 2.50674 -0.0852972 1.02404 -12.8929 9.14095 0.557109 -13.0801 17.0364 3.27902 -0.0 0.0 -0.0 3.9692 13.8498 8.12578 -5.69587 -29.1114 57.5826 1.29926 -32.7643 0.381968 -27.9096 -1.76644 3.06427 0.670345 3.91197 6.072 -0.0 0.0 -0.0 11.0877 14.9871 -22.1276 -20.9697 2.72359 -63.5907 1.01084 26.5983 -0.238942 77.5745 3.56185 8.46717 0.729704 -28.6298 -15.2817 0.0 0.0 0.0 4.2642 9.76448 4.5744 -7.92304 0.24422 1.19046 30.0509 -4.82217 -3.96532 -2.90149 0.0 0.0 -0.0 0.0 -0.0 18.3912 23.0957 -0.964477 -52.1014 1.41006 -7.60002 16.6187 -6.36126 2.30345 -13.2044 0.0 0.0 0.0 0.0 0.0 
1783.3 717.944 -1215.4 -10.9361 69.3787 9.12359 2.43025 -0.00594771 0.976036 2.43078 -0.0680404 0.97368 2.42951 -0.231199 0.948279 2.42827 -0.078542 0.972889 -11.5541 8.667 -0.732937 -11.6932 16.8874 1.70081 -0.0 0.0 -0.0 4.15459 13.4323 8.4263 -3.91337 -29.7002 57.6421 1.32918 -33.3608 0.398294 -28.9499 -1.85978 3.15953 -0.0262235 4.07439 1.53404 -0.0 0.0 -0.0 10.89 14.7017 -21.6932 -21.134 2.39669 -63.9672 0.803675 21.7082 -0.154098 78.8671 3.70856 8.54462 0.788553 -28.7221 -15.6414 0.0 0.0 0.0 1.58647 9.39151 5.38012 -5.49407 0.1869 0.822141 31.1494 -3.76694 -4.06844 -4.05244 0.0 0.0 -0.0 0.0 -0.0 24.0113 28.0229 -5.52946 -47.842 1.03946 -7.059 13.6895 -13.3556 1.92931 -17.803 0.0 0.0 0.0 0.0 0.0 
1770.61 720.952 -1215.3 -9.89893 68.8451 8.42799 2.46507 -0.0788247 0.882027 2.46549 -0.134788 0.875225 2.46333 -0.279903 0.840146 2.46238 -0.14371 0.873804 -12.0013 8.072 -1.5007 -12.1377 16.2701 0.857862 -0.0 0.0 -0.0 3.99396 12.5973 8.14409 -2.75651 -30.134 57.7702 1.44572 -35.6068 0.464285 -29.8335 -1.94043 3.23911 -0.591909 4.31095 -2.09231 -0.0 0.0 -0.0 10.7359 14.6285 -21.3502 -21.2207 4.6921 -63.9833 0.552334 15.3023 -0.0741998 79.5511 3.78688 8.58426 0.154934 -29.0338 -12.2079 0.0 0.0 0.0 0.096399 11.4005 5.69169 -2.9843 0.111319 0.444415 27.5357 -2.17808 -3.65969 -4.30119 0.0 0.0 -0.0 0.0 -0.0 24.5298 28.4848 -6.19535 -46.7334 0.94972 -6.91386 17.2569 -17.2954 2.4213 -19.5328 0.0 0.0 0.0 0.0 0.0 
1757.51 719.213 -1215.51 -7.76138 69.3901 6.46743 2.18652 -0.0564194 0.657503 2.18676 -0.0981428 0.652581 2.1856 -0.209404 0.625816 2.18507 -0.107942 0.651032 -12.1025 8.26099 -1.64276 -12.2492 16.722 0.792448 -0.0 0.0 -0.0 3.97548 12.3617 8.10828 -1.54317 -30.662 57.7411 1.60226 -38.4366 0.558571 -30.3042 -1.98388 3.281 -0.83807 1.78378 -4.82329 -0.0 0.0 -0.0 10.5412 13.2985 -20.9594 -22.4195 3.36502 -63.3323 0.473223 13.1933 -0.0547261 80.8058 3.93177 8.65454 -0.157229 -28.9236 -10.455 0.0 0.0 0.0 -1.95155 8.55751 5.83796 -0.941802 0.037632 0.139631 27.5217 -2.26421 -3.65895 -8.4293 0.0 0.0 -0.0 0.0 -0.0 26.5175 23.2642 -5.23173 -47.8827 1.04281 -7.06429 13.3041 -16.4853 1.89077 -24.75 0.0 0.0 0.0 0.0 0.0 
1738.76 716.763 -1215.15 -6.36372 69.3429 5.40384 2.1458 -0.18518 0.551434 2.14594 -0.219893 0.538533 2.14383 -0.309983 0.492222 2.14356 -0.228356 0.535 -12.6603 6.87222 -0.971372 -12.7715 13.6725 1.09621 -0.0 0.0 -0.0 4.24319 11.2045 8.54177 -0.274089 -30.9043 57.756 1.72197 -40.4612 0.634648 -33.1286 -2.25178 3.52476 -0.744928 1.55322 -4.30313 -0.0 0.0 -0.0 10.1019 11.1011 -20.0396 -23.0519 1.92397 -62.845 0.424848 11.8851 -0.0442226 79.679 3.80159 8.59157 -0.482304 -29.0071 -8.71291 0.0 0.0 0.0 -3.65843 9.30108 6.19968 -1.79674 0.0697992 0.266891 28.8356 -0.170593 -3.78601 -10.2929 0.0 0.0 -0.0 0.0 -0.0 30.9568 22.9092 -6.95204 -46.4599 0.928015 -6.87779 11.5247 -19.8007 1.66574 -29.7524 0.0 0.0 0.0 0.0 0.0 
1725.98 713.113 -1214.38 -5.17928 66.7217 4.33864 2.14776 0.125691 0.299915 2.1478 0.106352 0.307305 2.14838 0.0514625 0.32109 2.14825 0.101527 0.308933 -13.6727 7.37118 -1.56586 -13.8301 15.0111 0.816071 -0.0 0.0 -0.0 3.86501 12.1636 7.91751 0.325567 -31.0905 57.841 2.06046 -45.5813 0.865819 -33.1943 -2.25815 3.53028 -0.913032 1.4555 -5.46787 -0.0 0.0 -0.0 9.92331 10.8668 -19.6518 -24.545 3.49067 -62.224 0.388649 10.8977 -0.0370728 81.9071 4.06017 8.7136 -0.731587 -29.012 -7.36367 0.0 0.0 0.0 -4.91148 9.54397 7.05838 -2.94082 0.109864 0.437901 32.8339 4.50111 -4.18447 -10.1696 0.0 0.0 -0.0 0.0 -0.0 32.4882 21.5444 -7.82648 -42.8303 0.656578 -6.38989 15.1592 -19.6973 2.16201 -34.3732 0.0 0.0 0.0 0.0 0.0 
1706.22 708.133 -1220.29 -3.69978 65.708 2.70059 2.21687 0.158486 0.200027 2.21688 0.145437 0.209706 2.21742 0.107156 0.231616 2.21737 0.14239 0.211786 -16.6969 7.37768 0.637864 -16.8993 13.8009 3.2864 -0.0 0.0 -0.0 2.97757 12.4565 6.43532 1.30483 -31.3747 57.8907 2.2922 -48.6236 1.03565 -32.8496 -2.22478 3.50127 -0.419698 1.23099 -2.27554 -0.0 0.0 -0.0 9.59971 10.3914 -18.9533 -25.5463 2.02366 -62.7654 0.315234 8.8757 -0.0244655 81.3227 3.9919 8.68256 -2.29284 -28.8462 1.09971 0.0 0.0 0.0 -8.03284 8.99486 7.64054 -0.76373 0.0306934 0.113184 33.0812 4.83672 -4.20897 -11.8401 0.0 0.0 -0.0 0.0 -0.0 33.1743 19.8642 -7.9891 -36.8801 0.280305 -5.55655 16.7171 -14.1453 2.33186 -39.7722 0.0 0.0 0.0 0.0 0.0 
